<svg width="70" height="18" viewBox="0 0 70 18" fill="none" xmlns="http://www.w3.org/2000/svg">
<path d="M10.152 9.376C10.344 9.928 10.104 10.318 9.432 10.546C8.76 10.774 8.328 10.612 8.136 10.06L5.814 3.022L2.358 13.408C2.166 13.96 1.734 14.122 1.062 13.894C0.39 13.666 0.15 13.276 0.342 12.724L3.87 2.104C4.062 1.552 4.494 1.396 5.166 1.636C5.466 1.744 5.682 1.882 5.814 2.05C5.946 1.882 6.162 1.744 6.462 1.636C7.134 1.396 7.566 1.552 7.758 2.104L10.152 9.376ZM7.578 16.882C7.146 16.882 6.846 16.768 6.678 16.54C6.522 16.324 6.444 16.078 6.444 15.802V11.536C6.444 10.96 6.798 10.672 7.506 10.672C8.226 10.672 8.586 10.96 8.586 11.536V14.884C8.586 14.932 8.592 14.974 8.604 15.01C8.616 15.046 8.664 15.064 8.748 15.064H16.848C17.292 15.064 17.514 15.37 17.514 15.982C17.526 16.582 17.304 16.882 16.848 16.882H7.578ZM13.842 11.356C13.842 11.932 13.482 12.22 12.762 12.22C12.054 12.22 11.7 11.932 11.7 11.356V2.032C11.7 1.456 12.054 1.168 12.762 1.168C13.482 1.168 13.842 1.456 13.842 2.032V11.356ZM17.208 6.154C17.208 6.538 17.07 6.868 16.794 7.144C16.53 7.408 16.206 7.54 15.822 7.54C15.438 7.54 15.108 7.408 14.832 7.144C14.568 6.868 14.436 6.538 14.436 6.154C14.436 5.77 14.568 5.446 14.832 5.182C15.108 4.906 15.438 4.768 15.822 4.768C16.206 4.768 16.53 4.906 16.794 5.182C17.07 5.446 17.208 5.77 17.208 6.154ZM30.276 15.604C30.276 16.18 29.916 16.468 29.196 16.468C28.488 16.468 28.134 16.18 28.134 15.604V2.032C28.134 1.456 28.488 1.168 29.196 1.168C29.916 1.168 30.276 1.456 30.276 2.032V7.396H31.266C31.446 7.396 31.59 7.444 31.698 7.54V2.032C31.698 1.456 32.052 1.168 32.76 1.168C33.48 1.168 33.84 1.456 33.84 2.032V15.604C33.84 16.18 33.48 16.468 32.76 16.468C32.052 16.468 31.698 16.18 31.698 15.604V9.07C31.59 9.166 31.446 9.214 31.266 9.214H30.276V15.604ZM27.036 10.024C27.036 11.14 26.646 12.112 25.866 12.94C25.098 13.756 24.174 14.164 23.094 14.164C22.002 14.164 21.066 13.756 20.286 12.94C19.506 12.124 19.116 11.152 19.116 10.024C19.116 8.884 19.506 7.912 20.286 7.108C21.066 6.292 22.002 5.884 23.094 5.884C24.174 5.884 25.098 6.298 25.866 7.126C26.646 7.942 27.036 8.908 27.036 10.024ZM19.116 5.614C18.672 5.614 18.444 5.314 18.432 4.714C18.432 4.102 18.66 3.796 19.116 3.796H22.014V2.032C22.014 1.456 22.368 1.168 23.076 1.168C23.796 1.168 24.156 1.456 24.156 2.032V3.796H26.892C27.36 3.796 27.588 4.102 27.576 4.714C27.576 5.314 27.348 5.614 26.892 5.614H19.116ZM24.894 10.024C24.894 9.388 24.714 8.836 24.354 8.368C23.994 7.9 23.574 7.666 23.094 7.666C22.614 7.666 22.188 7.9 21.816 8.368C21.456 8.836 21.276 9.388 21.276 10.024C21.276 10.66 21.456 11.212 21.816 11.68C22.188 12.148 22.614 12.382 23.094 12.382C23.574 12.382 23.994 12.148 24.354 11.68C24.714 11.212 24.894 10.66 24.894 10.024ZM46.217 9.034C46.565 9.61 46.439 10.084 45.839 10.456C45.239 10.816 44.777 10.732 44.453 10.204L41.483 5.65L38.009 13.408C37.769 13.96 37.319 14.116 36.659 13.876C35.999 13.624 35.801 13.186 36.065 12.562L40.169 3.382H37.109C36.665 3.382 36.437 3.082 36.425 2.482C36.425 1.87 36.653 1.564 37.109 1.564H45.533C46.001 1.564 46.229 1.87 46.217 2.482C46.217 3.082 45.989 3.382 45.533 3.382H42.545L46.217 9.034ZM42.257 16.882C41.825 16.882 41.525 16.768 41.357 16.54C41.201 16.324 41.123 16.078 41.123 15.802V11.356C41.123 10.78 41.477 10.492 42.185 10.492C42.905 10.492 43.265 10.78 43.265 11.356V14.884C43.265 14.932 43.271 14.974 43.283 15.01C43.295 15.046 43.343 15.064 43.427 15.064H51.527C51.971 15.064 52.193 15.37 52.193 15.982C52.205 16.582 51.983 16.882 51.527 16.882H42.257ZM50.519 11.356C50.519 11.932 50.159 12.22 49.439 12.22C48.731 12.22 48.377 11.932 48.377 11.356V2.032C48.377 1.456 48.731 1.168 49.439 1.168C50.159 1.168 50.519 1.456 50.519 2.032V11.356ZM59.3601 8.206H69.7821V9.502H59.3601V8.206ZM60.0621 3.85H69.0261V5.146H60.0621V3.85ZM63.7341 0.987999H65.0841V17.422H63.7341V0.987999ZM63.4461 8.908L64.5261 9.25C63.3921 12.202 61.3401 14.956 59.1261 16.396C58.9101 16.072 58.5141 15.604 58.1901 15.334C60.3681 14.11 62.4021 11.536 63.4461 8.908ZM65.3901 8.89C66.3441 11.392 68.1621 13.984 69.9981 15.262C69.6741 15.514 69.2241 16.018 68.9901 16.378C67.1541 14.848 65.3541 12.004 64.3461 9.25L65.3901 8.89ZM54.6441 2.536H58.7121V13.012H54.6441V11.716H57.4701V3.832H54.6441V2.536ZM53.9781 2.536H55.2201V14.434H53.9781V2.536Z" fill="black"/>
</svg>
